<svg  viewBox="0 0 120 120"  xmlns="http://www.w3.org/2000/svg">
<path d="M50.8776 20.2656C55.0673 13.2456 65.2359 13.2454 69.4255 20.2656L108.454 85.666C113.609 94.3043 107.385 105.266 97.3259 105.267H22.9772C12.9177 105.267 6.69328 94.3043 11.8483 85.666L50.8776 20.2656ZM64.1599 32.3525C63.1171 27.9779 56.9173 27.9099 55.779 32.2607L48.2897 60.8867C48.0943 61.6337 47.7019 62.3153 47.154 62.8594L21.6608 88.1709C18.5012 91.3081 21.5797 96.5962 25.8679 95.3975L58.9899 86.1367C59.7507 85.924 60.5553 85.9241 61.3161 86.1367L93.9675 95.2656C98.2865 96.4728 101.357 91.1121 98.1306 87.9971L72.1432 62.9053C71.55 62.3324 71.1324 61.602 70.9411 60.7998L64.1599 32.3525Z"/>
</svg>
