<svg  viewBox="0 0 120 120" xmlns="http://www.w3.org/2000/svg">
	<path d="M26.4499 95.4023C46.7686 80.889 74.0637 80.889 94.3825 95.4023C94.4292 95.4357 94.4766 95.4665 94.5241 95.4951C85.6033 104.173 73.4263 109.521 59.9977 109.521C46.6901 109.521 34.61 104.271 25.7116 95.7305C25.9605 95.6781 26.2107 95.5732 26.4499 95.4023ZM24.4235 28.1279C33.9383 48.1091 33.9383 71.3147 24.4235 91.2959L23.6042 93.0176C23.5391 93.1543 23.4919 93.2908 23.4596 93.4258C15.3954 84.6162 10.4743 72.8816 10.4743 59.9971C10.4744 47.0355 15.4558 35.2391 23.6061 26.4121L24.4235 28.1279ZM96.9372 27.0166C104.762 35.7743 109.521 47.3289 109.521 59.9971C109.521 72.5694 104.833 84.0449 97.1139 92.7783L96.4088 91.2959C86.8941 71.3147 86.8941 48.1091 96.4088 28.1279L96.9372 27.0166ZM59.9977 10.4736C72.735 10.4736 84.3479 15.2837 93.1227 23.1846C72.4111 33.0287 48.3661 33.0211 27.6598 23.1611L27.1647 22.9248C35.9044 15.1788 47.4009 10.4736 59.9977 10.4736Z"/>
</svg>
