<svg viewBox="0 0 24 24" fill="#fff" xmlns="http://www.w3.org/2000/svg">
<path fill-rule="evenodd" clip-rule="evenodd" d="M5.00702 10.014C2.24354 10.014 0 7.77051 0 5.00702C0 2.24365 2.24354 0 5.00702 0C7.7704 0 10.014 2.24365 10.014 5.00702L10.0214 5.01452C10.0255 9.2204 13.4381 12.6338 17.6409 12.6338C20.4042 12.6338 22.6479 14.8774 22.6479 17.6409C22.6479 20.4043 20.4042 22.6479 17.6409 22.6479C14.8774 22.6479 12.6338 20.4043 12.6338 17.6409C12.6338 13.4316 9.21973 10.014 5.01441 10.014C5.01198 10.014 5.00945 10.014 5.00702 10.014ZM5.00702 12.6338C7.7704 12.6338 10.014 14.8774 10.014 17.6409C10.014 20.4043 7.7704 22.6479 5.00702 22.6479C2.24354 22.6479 0 20.4043 0 17.6409C0 14.8774 2.24354 12.6338 5.00702 12.6338ZM17.6409 0C20.4042 0 22.6479 2.24365 22.6479 5.00702C22.6479 7.77051 20.4042 10.014 17.6409 10.014C14.8774 10.014 12.6338 7.77051 12.6338 5.00702C12.6338 2.24365 14.8774 0 17.6409 0Z" />
</svg>
