<svg width="30" height="30" viewBox="0 0 30 30" fill="none" xmlns="http://www.w3.org/2000/svg">
<g clip-path="url(#clip0_103_4193)">
<path d="M25.5825 2.45863L18.475 0.276135C16.9062 -0.201665 15.2125 -0.0451232 13.7578 0.712135C12.3031 1.46939 11.2035 2.76696 10.695 4.32613L10.46 4.99988H6.25C4.59301 5.00186 3.00445 5.66098 1.83277 6.83265C0.661102 8.00432 0.00198482 9.59288 0 11.2499L0 23.7499C0.00198482 25.4068 0.661102 26.9954 1.83277 28.1671C3.00445 29.3387 4.59301 29.9979 6.25 29.9998H13.75C14.6969 29.9965 15.6305 29.777 16.4797 29.3581C17.3289 28.9391 18.0712 28.3318 18.65 27.5824C18.9353 27.6237 19.223 27.6455 19.5112 27.6474C20.8535 27.6484 22.1601 27.2152 23.2358 26.4125C24.3116 25.6098 25.0989 24.4806 25.48 23.1936L29.75 10.1949C30.2062 8.6165 30.0252 6.92218 29.246 5.47574C28.4668 4.02929 27.1515 2.94606 25.5825 2.45863ZM13.75 27.4999H6.25C5.25544 27.4999 4.30161 27.1048 3.59835 26.4015C2.89509 25.6982 2.5 24.7444 2.5 23.7499V11.2499C2.5 10.2553 2.89509 9.30148 3.59835 8.59822C4.30161 7.89496 5.25544 7.49988 6.25 7.49988H13.75C14.7446 7.49988 15.6984 7.89496 16.4017 8.59822C17.1049 9.30148 17.5 10.2553 17.5 11.2499V23.7499C17.5 24.7444 17.1049 25.6982 16.4017 26.4015C15.6984 27.1048 14.7446 27.4999 13.75 27.4999ZM27.3587 9.45362L23.0938 22.4536C22.8818 23.1728 22.4586 23.8116 21.8791 24.2873C21.2995 24.763 20.5904 25.0535 19.8438 25.1211C19.9464 24.6712 19.9988 24.2113 20 23.7499V11.2499C19.998 9.59288 19.3389 8.00432 18.1672 6.83265C16.9956 5.66098 15.407 5.00186 13.75 4.99988H13.1163C13.4389 4.0906 14.0996 3.34067 14.961 2.90602C15.8224 2.47137 16.8181 2.38545 17.7412 2.66613L24.8487 4.84863C25.7849 5.1375 26.5712 5.78057 27.0401 6.64079C27.5089 7.501 27.6233 8.51032 27.3587 9.45362ZM15 16.2499C15 18.0624 13.07 20.4886 11.6075 21.7224C11.1582 22.1025 10.5886 22.3112 10 22.3112C9.4114 22.3112 8.84185 22.1025 8.3925 21.7224C6.93 20.4886 5 18.0624 5 16.2499C5 15.5868 5.26339 14.9509 5.73223 14.4821C6.20107 14.0133 6.83696 13.7499 7.5 13.7499C8.16304 13.7499 8.79893 14.0133 9.26777 14.4821C9.73661 14.9509 10 15.5868 10 16.2499C10 15.5868 10.2634 14.9509 10.7322 14.4821C11.2011 14.0133 11.837 13.7499 12.5 13.7499C13.163 13.7499 13.7989 14.0133 14.2678 14.4821C14.7366 14.9509 15 15.5868 15 16.2499Z" fill="white"/>
</g>
<defs>
<clipPath id="clip0_103_4193">
<rect width="30" height="30" fill="white"/>
</clipPath>
</defs>
</svg>
